<svg width="1440" height="1024" viewBox="0 0 1440 1024" fill="none" xmlns="http://www.w3.org/2000/svg">
<path fill-rule="evenodd" clip-rule="evenodd" d="M0 512V1024H720H1440V512V0H720H0V512Z" fill="#E7EBFF"/>
<path fill-rule="evenodd" clip-rule="evenodd" d="M0 512V1024H720H1440V512V0H720H0V512ZM905 20.378C905 20.585 904.212 21.373 903.25 22.128C901.664 23.371 901.629 23.336 902.872 21.75C904.179 20.084 905 19.555 905 20.378ZM894 30.279C894 30.432 890.962 33.47 887.25 37.029L880.5 43.5L886.971 36.75C892.982 30.48 894 29.543 894 30.279ZM874 51.378C874 51.585 873.212 52.373 872.25 53.128C870.664 54.371 870.629 54.336 871.872 52.75C873.179 51.084 874 50.555 874 51.378ZM545 925.345C545 925.535 543.987 926.547 542.75 927.595L540.5 929.5L542.405 927.25C544.195 925.136 545 924.545 545 925.345ZM513 957.345C513 957.535 511.988 958.547 510.75 959.595L508.5 961.5L510.405 959.25C512.195 957.136 513 956.545 513 957.345Z" fill="#CED6FF"/>
<path fill-rule="evenodd" clip-rule="evenodd" d="M0 512V1024H720H1440V512.001V0.003L720 0.001L0 0V512ZM905 20.378C905 20.585 904.212 21.373 903.25 22.128C901.664 23.371 901.629 23.336 902.872 21.75C904.179 20.084 905 19.555 905 20.378ZM895 29.277C895 29.429 891.737 32.692 887.75 36.527L880.5 43.5L887.473 36.25C893.95 29.516 895 28.543 895 29.277ZM874 51.378C874 51.585 873.212 52.373 872.25 53.128C870.664 54.371 870.629 54.336 871.872 52.75C873.179 51.084 874 50.555 874 51.378ZM706.683 504.188C706.364 504.985 706.127 504.748 706.079 503.583C706.036 502.529 706.272 501.939 706.604 502.271C706.936 502.603 706.972 503.466 706.683 504.188ZM705.683 517.188C705.364 517.985 705.127 517.748 705.079 516.583C705.036 515.529 705.272 514.939 705.604 515.271C705.936 515.603 705.972 516.466 705.683 517.188ZM704.683 529.188C704.364 529.985 704.127 529.748 704.079 528.583C704.036 527.529 704.272 526.939 704.604 527.271C704.936 527.603 704.972 528.466 704.683 529.188ZM702.683 549.188C702.364 549.985 702.127 549.748 702.079 548.583C702.036 547.529 702.272 546.939 702.604 547.271C702.936 547.603 702.972 548.466 702.683 549.188ZM545 925.326C545 925.505 543.763 926.742 542.25 928.076L539.5 930.5L541.924 927.75C544.19 925.18 545 924.541 545 925.326ZM513 957.345C513 957.535 511.988 958.547 510.75 959.595L508.5 961.5L510.405 959.25C512.195 957.136 513 956.545 513 957.345Z" fill="#B6C2FF"/>
<path fill-rule="evenodd" clip-rule="evenodd" d="M0 512V1024H720H1440V512.001V0.003L720 0.001L0 0V512ZM917 10.378C917 10.585 916.212 11.373 915.25 12.128C913.664 13.371 913.629 13.336 914.872 11.75C916.179 10.084 917 9.555 917 10.378ZM912 14.378C912 14.585 911.212 15.373 910.25 16.128C908.664 17.371 908.629 17.336 909.872 15.75C911.179 14.084 912 13.555 912 14.378ZM907 18.326C907 18.505 905.763 19.742 904.25 21.076L901.5 23.5L903.924 20.75C906.19 18.18 907 17.541 907 18.326ZM899 25.266C899 25.413 893.712 30.7 887.25 37.016L875.5 48.5L886.984 36.75C897.65 25.836 899 24.546 899 25.266ZM874 51.313C874 51.485 872.538 52.948 870.75 54.563L867.5 57.5L870.437 54.25C873.175 51.221 874 50.54 874 51.313ZM867 59.345C867 59.535 865.987 60.547 864.75 61.595L862.5 63.5L864.405 61.25C866.195 59.136 867 58.545 867 59.345ZM862 65.345C862 65.535 860.987 66.547 859.75 67.595L857.5 69.5L859.405 67.25C861.195 65.136 862 64.545 862 65.345ZM858 70.378C858 70.585 857.212 71.373 856.25 72.128C854.664 73.371 854.629 73.336 855.872 71.75C857.179 70.084 858 69.555 858 70.378ZM854 75.378C854 75.585 853.212 76.373 852.25 77.128C850.664 78.371 850.629 78.336 851.872 76.75C853.179 75.084 854 74.555 854 75.378ZM851 79.378C851 79.585 850.212 80.373 849.25 81.128C847.664 82.371 847.629 82.336 848.872 80.75C850.179 79.084 851 78.555 851 79.378ZM848 83.378C848 83.585 847.212 84.373 846.25 85.128C844.664 86.371 844.629 86.336 845.872 84.75C847.179 83.084 848 82.555 848 83.378ZM794.816 170.504C794.189 171.882 793.487 172.82 793.257 172.59C792.789 172.123 794.817 168 795.514 168C795.758 168 795.444 169.127 794.816 170.504ZM720.683 399.188C720.364 399.985 720.127 399.748 720.079 398.583C720.036 397.529 720.272 396.939 720.604 397.271C720.936 397.603 720.972 398.466 720.683 399.188ZM718.683 410.188C718.364 410.985 718.127 410.748 718.079 409.583C718.036 408.529 718.272 407.939 718.604 408.271C718.936 408.603 718.972 409.466 718.683 410.188ZM717.683 416.188C717.364 416.985 717.127 416.748 717.079 415.583C717.036 414.529 717.272 413.939 717.604 414.271C717.936 414.603 717.972 415.466 717.683 416.188ZM716.683 422.188C716.364 422.985 716.127 422.748 716.079 421.583C716.036 420.529 716.272 419.939 716.604 420.271C716.936 420.603 716.972 421.466 716.683 422.188ZM714.683 435.188C714.364 435.985 714.127 435.748 714.079 434.583C714.036 433.529 714.272 432.939 714.604 433.271C714.936 433.603 714.972 434.466 714.683 435.188ZM713.683 442.188C713.364 442.985 713.127 442.748 713.079 441.583C713.036 440.529 713.272 439.939 713.604 440.271C713.936 440.603 713.972 441.466 713.683 442.188ZM712.683 449.188C712.364 449.985 712.127 449.748 712.079 448.583C712.036 447.529 712.272 446.939 712.604 447.271C712.936 447.603 712.972 448.466 712.683 449.188ZM711.683 457.188C711.364 457.985 711.127 457.748 711.079 456.583C711.036 455.529 711.272 454.939 711.604 455.271C711.936 455.603 711.972 456.466 711.683 457.188ZM710.683 465.188C710.364 465.985 710.127 465.748 710.079 464.583C710.036 463.529 710.272 462.939 710.604 463.271C710.936 463.603 710.972 464.466 710.683 465.188ZM709.662 474.25C709.385 474.938 709.158 474.375 709.158 473C709.158 471.625 709.385 471.063 709.662 471.75C709.94 472.438 709.94 473.563 709.662 474.25ZM708.662 483.25C708.385 483.938 708.158 483.375 708.158 482C708.158 480.625 708.385 480.063 708.662 480.75C708.94 481.438 708.94 482.563 708.662 483.25ZM707.662 493.25C707.385 493.938 707.158 493.375 707.158 492C707.158 490.625 707.385 490.063 707.662 490.75C707.94 491.438 707.94 492.563 707.662 493.25ZM706.662 504.25C706.385 504.938 706.158 504.375 706.158 503C706.158 501.625 706.385 501.063 706.662 501.75C706.94 502.438 706.94 503.563 706.662 504.25ZM705.693 516.731C705.439 517.704 705.215 517.15 705.195 515.5C705.175 513.85 705.382 513.054 705.656 513.731C705.93 514.408 705.947 515.758 705.693 516.731ZM704.693 528.731C704.439 529.704 704.215 529.15 704.195 527.5C704.175 525.85 704.382 525.054 704.656 525.731C704.93 526.408 704.947 527.758 704.693 528.731ZM703.662 539.25C703.385 539.938 703.158 539.375 703.158 538C703.158 536.625 703.385 536.063 703.662 536.75C703.94 537.438 703.94 538.563 703.662 539.25ZM702.662 549.25C702.385 549.938 702.158 549.375 702.158 548C702.158 546.625 702.385 546.063 702.662 546.75C702.94 547.438 702.94 548.563 702.662 549.25ZM701.683 557.188C701.364 557.985 701.127 557.748 701.079 556.583C701.036 555.529 701.272 554.939 701.604 555.271C701.936 555.603 701.972 556.466 701.683 557.188ZM700.683 565.188C700.364 565.985 700.127 565.748 700.079 564.583C700.036 563.529 700.272 562.939 700.604 563.271C700.936 563.603 700.972 564.466 700.683 565.188ZM699.683 572.188C699.364 572.985 699.127 572.748 699.079 571.583C699.036 570.529 699.272 569.939 699.604 570.271C699.936 570.603 699.972 571.466 699.683 572.188ZM698.683 579.188C698.364 579.985 698.127 579.748 698.079 578.583C698.036 577.529 698.272 576.939 698.604 577.271C698.936 577.603 698.972 578.466 698.683 579.188ZM697.683 586.188C697.364 586.985 697.127 586.748 697.079 585.583C697.036 584.529 697.272 583.939 697.604 584.271C697.936 584.603 697.972 585.466 697.683 586.188ZM696.683 592.188C696.364 592.985 696.127 592.748 696.079 591.583C696.036 590.529 696.272 589.939 696.604 590.271C696.936 590.603 696.972 591.466 696.683 592.188ZM695.683 598.188C695.364 598.985 695.127 598.748 695.079 597.583C695.036 596.529 695.272 595.939 695.604 596.271C695.936 596.603 695.972 597.466 695.683 598.188ZM694.683 604.188C694.364 604.985 694.127 604.748 694.079 603.583C694.036 602.529 694.272 601.939 694.604 602.271C694.936 602.603 694.972 603.466 694.683 604.188ZM622 816C621.411 817.1 620.705 818 620.43 818C620.155 818 620.411 817.1 621 816C621.589 814.9 622.295 814 622.57 814C622.845 814 622.589 814.9 622 816ZM580 882.378C580 882.585 579.212 883.373 578.25 884.128C576.664 885.371 576.629 885.336 577.872 883.75C579.179 882.084 580 881.555 580 882.378ZM577 886.378C577 886.585 576.212 887.373 575.25 888.128C573.664 889.371 573.629 889.336 574.872 887.75C576.179 886.084 577 885.555 577 886.378ZM574 890.378C574 890.585 573.212 891.373 572.25 892.128C570.664 893.371 570.629 893.336 571.872 891.75C573.179 890.084 574 889.555 574 890.378ZM571 894.345C571 894.535 569.987 895.547 568.75 896.595L566.5 898.5L568.405 896.25C570.195 894.136 571 893.545 571 894.345ZM567 899.378C567 899.585 566.212 900.373 565.25 901.128C563.664 902.371 563.629 902.336 564.872 900.75C566.179 899.084 567 898.555 567 899.378ZM563 904.345C563 904.535 561.987 905.547 560.75 906.595L558.5 908.5L560.405 906.25C562.195 904.136 563 903.545 563 904.345ZM558 910.345C558 910.535 556.987 911.547 555.75 912.595L553.5 914.5L555.405 912.25C557.195 910.136 558 909.545 558 910.345ZM552 917.326C552 917.505 550.763 918.742 549.25 920.076L546.5 922.5L548.924 919.75C551.19 917.18 552 916.541 552 917.326ZM545 925.284C545 925.44 542.413 928.028 539.25 931.034L533.5 936.5L538.966 930.75C544.044 925.408 545 924.542 545 925.284ZM519 951.288C519 951.446 516.638 953.808 513.75 956.538L508.5 961.5L513.462 956.25C518.074 951.372 519 950.541 519 951.288ZM506 963.326C506 963.505 504.762 964.742 503.25 966.076L500.5 968.5L502.924 965.75C505.19 963.18 506 962.541 506 963.326ZM498 970.345C498 970.535 496.988 971.547 495.75 972.595L493.5 974.5L495.405 972.25C497.195 970.136 498 969.545 498 970.345ZM492 975.378C492 975.585 491.212 976.373 490.25 977.128C488.664 978.371 488.629 978.336 489.872 976.75C491.179 975.084 492 974.555 492 975.378ZM487 979.378C487 979.585 486.212 980.373 485.25 981.128C483.664 982.371 483.629 982.336 484.872 980.75C486.179 979.084 487 978.555 487 979.378Z" fill="#8699FF"/>
<path fill-rule="evenodd" clip-rule="evenodd" d="M0 511.999V1024L720 1024L1440 1024V512.001V0.003L720 0.001L0 0V511.999ZM921 7.378C921 7.585 920.212 8.373 919.25 9.128C917.664 10.371 917.629 10.336 918.872 8.75C920.179 7.084 921 6.555 921 7.378ZM917 10.378C917 10.585 916.212 11.373 915.25 12.128C913.664 13.371 913.629 13.336 914.872 11.75C916.179 10.084 917 9.555 917 10.378ZM913 13.345C913 13.535 911.987 14.547 910.75 15.595L908.5 17.5L910.405 15.25C912.195 13.136 913 12.545 913 13.345ZM908 17.313C908 17.485 906.538 18.948 904.75 20.563L901.5 23.5L904.437 20.25C907.175 17.221 908 16.54 908 17.313ZM900 24.265C900 24.411 894.263 30.148 887.25 37.015L874.5 49.5L886.985 36.75C898.582 24.907 900 23.547 900 24.265ZM874 51.304C874 51.471 872.313 53.158 870.25 55.054L866.5 58.5L869.946 54.75C873.154 51.26 874 50.54 874 51.304ZM867 59.326C867 59.505 865.763 60.742 864.25 62.076L861.5 64.5L863.924 61.75C866.19 59.18 867 58.541 867 59.326ZM862 65.345C862 65.535 860.987 66.547 859.75 67.595L857.5 69.5L859.405 67.25C861.195 65.136 862 64.545 862 65.345ZM858 70.345C858 70.535 856.987 71.547 855.75 72.595L853.5 74.5L855.405 72.25C857.195 70.136 858 69.545 858 70.345ZM854 75.378C854 75.585 853.212 76.373 852.25 77.128C850.664 78.371 850.629 78.336 851.872 76.75C853.179 75.084 854 74.555 854 75.378ZM851 79.378C851 79.585 850.212 80.373 849.25 81.128C847.664 82.371 847.629 82.336 848.872 80.75C850.179 79.084 851 78.555 851 79.378ZM848 83.378C848 83.585 847.212 84.373 846.25 85.128C844.664 86.371 844.629 86.336 845.872 84.75C847.179 83.084 848 82.555 848 83.378ZM845 87.378C845 87.585 844.212 88.373 843.25 89.128C841.664 90.371 841.629 90.336 842.872 88.75C844.179 87.084 845 86.555 845 87.378ZM838 97C836.825 98.65 835.639 100 835.364 100C835.089 100 835.825 98.65 837 97C838.175 95.35 839.361 94 839.636 94C839.911 94 839.175 95.35 838 97ZM828.108 111.75C827.579 112.713 826.391 114.4 825.468 115.5C823.856 117.42 823.846 117.4 825.217 115C827.837 110.413 828.115 110 828.594 110C828.856 110 828.638 110.787 828.108 111.75ZM821 123C820.411 124.1 819.705 125 819.43 125C819.155 125 819.411 124.1 820 123C820.589 121.9 821.295 121 821.57 121C821.845 121 821.589 121.9 821 123ZM818 128C817.411 129.1 816.705 130 816.43 130C816.155 130 816.411 129.1 817 128C817.589 126.9 818.295 126 818.57 126C818.845 126 818.589 126.9 818 128ZM815 133C814.411 134.1 813.705 135 813.43 135C813.155 135 813.411 134.1 814 133C814.589 131.9 815.295 131 815.57 131C815.845 131 815.589 131.9 815 133ZM811 140C810.411 141.1 809.705 142 809.43 142C809.155 142 809.411 141.1 810 140C810.589 138.9 811.295 138 811.57 138C811.845 138 811.589 138.9 811 140ZM806.5 148C805.647 149.65 804.724 151 804.449 151C804.174 151 804.647 149.65 805.5 148C806.353 146.35 807.276 145 807.551 145C807.826 145 807.353 146.35 806.5 148ZM794.284 171.456C790.596 178.857 787.421 184.754 787.229 184.562C786.788 184.121 799.841 158 800.502 158C800.771 158 797.973 164.055 794.284 171.456ZM782.618 195.662C781.772 197.223 781.062 198.184 781.04 197.797C780.972 196.608 783.299 191.965 783.741 192.407C783.969 192.636 783.464 194.1 782.618 195.662ZM778.122 205.675C776.943 207.702 776.659 207.053 777.624 204.539C777.966 203.645 778.458 203.124 778.715 203.382C778.973 203.639 778.706 204.671 778.122 205.675ZM775.122 212.675C773.943 214.702 773.659 214.053 774.624 211.539C774.966 210.645 775.458 210.124 775.715 210.382C775.973 210.639 775.706 211.671 775.122 212.675ZM770.122 224.675C768.943 226.702 768.659 226.053 769.624 223.539C769.966 222.645 770.458 222.124 770.715 222.382C770.973 222.639 770.706 223.671 770.122 224.675ZM768.122 229.675C766.943 231.702 766.659 231.053 767.624 228.539C767.966 227.645 768.458 227.124 768.715 227.382C768.973 227.639 768.706 228.671 768.122 229.675ZM763.122 242.675C761.943 244.702 761.659 244.053 762.624 241.539C762.966 240.645 763.458 240.124 763.715 240.382C763.973 240.639 763.706 241.671 763.122 242.675ZM759.122 253.675C757.943 255.702 757.659 255.053 758.624 252.539C758.966 251.645 759.458 251.124 759.715 251.382C759.973 251.639 759.706 252.671 759.122 253.675ZM747.429 289.429C747.061 290.894 746.567 291.9 746.331 291.665C746.096 291.429 746.204 290.037 746.571 288.571C746.939 287.106 747.433 286.1 747.669 286.335C747.904 286.571 747.796 287.963 747.429 289.429ZM743.683 301.188C743.364 301.985 743.127 301.748 743.079 300.583C743.036 299.529 743.272 298.939 743.604 299.271C743.936 299.603 743.972 300.466 743.683 301.188ZM741.683 308.188C741.364 308.985 741.127 308.748 741.079 307.583C741.036 306.529 741.272 305.939 741.604 306.271C741.936 306.603 741.972 307.466 741.683 308.188ZM739.683 315.188C739.364 315.985 739.127 315.748 739.079 314.583C739.036 313.529 739.272 312.939 739.604 313.271C739.936 313.603 739.972 314.466 739.683 315.188ZM738.683 319.188C738.364 319.985 738.127 319.748 738.079 318.583C738.036 317.529 738.272 316.939 738.604 317.271C738.936 317.603 738.972 318.466 738.683 319.188ZM736.683 326.188C736.364 326.985 736.127 326.748 736.079 325.583C736.036 324.529 736.272 323.939 736.604 324.271C736.936 324.603 736.972 325.466 736.683 326.188ZM735.683 330.188C735.364 330.985 735.127 330.748 735.079 329.583C735.036 328.529 735.272 327.939 735.604 328.271C735.936 328.603 735.972 329.466 735.683 330.188ZM734.683 334.188C734.364 334.985 734.127 334.748 734.079 333.583C734.036 332.529 734.272 331.939 734.604 332.271C734.936 332.603 734.972 333.466 734.683 334.188ZM733.683 338.188C733.364 338.985 733.127 338.748 733.079 337.583C733.036 336.529 733.272 335.939 733.604 336.271C733.936 336.603 733.972 337.466 733.683 338.188ZM732.683 342.188C732.364 342.985 732.127 342.748 732.079 341.583C732.036 340.529 732.272 339.939 732.604 340.271C732.936 340.603 732.972 341.466 732.683 342.188ZM731.683 346.188C731.364 346.985 731.127 346.748 731.079 345.583C731.036 344.529 731.272 343.939 731.604 344.271C731.936 344.603 731.972 345.466 731.683 346.188ZM730.683 350.188C730.364 350.985 730.127 350.748 730.079 349.583C730.036 348.529 730.272 347.939 730.604 348.271C730.936 348.603 730.972 349.466 730.683 350.188ZM729.683 355.188C729.364 355.985 729.127 355.748 729.079 354.583C729.036 353.529 729.272 352.939 729.604 353.271C729.936 353.603 729.972 354.466 729.683 355.188ZM728.683 359.188C728.364 359.985 728.127 359.748 728.079 358.583C728.036 357.529 728.272 356.939 728.604 357.271C728.936 357.603 728.972 358.466 728.683 359.188ZM727.683 364.188C727.364 364.985 727.127 364.748 727.079 363.583C727.036 362.529 727.272 361.939 727.604 362.271C727.936 362.603 727.972 363.466 727.683 364.188ZM726.683 368.188C726.364 368.985 726.127 368.748 726.079 367.583C726.036 366.529 726.272 365.939 726.604 366.271C726.936 366.603 726.972 367.466 726.683 368.188ZM725.683 373.188C725.364 373.985 725.127 373.748 725.079 372.583C725.036 371.529 725.272 370.939 725.604 371.271C725.936 371.603 725.972 372.466 725.683 373.188ZM724.683 378.188C724.364 378.985 724.127 378.748 724.079 377.583C724.036 376.529 724.272 375.939 724.604 376.271C724.936 376.603 724.972 377.466 724.683 378.188ZM723.662 383.25C723.385 383.938 723.158 383.375 723.158 382C723.158 380.625 723.385 380.063 723.662 380.75C723.94 381.438 723.94 382.563 723.662 383.25ZM722.662 388.25C722.385 388.938 722.158 388.375 722.158 387C722.158 385.625 722.385 385.063 722.662 385.75C722.94 386.438 722.94 387.563 722.662 388.25ZM721.683 393.188C721.364 393.985 721.127 393.748 721.079 392.583C721.036 391.529 721.272 390.939 721.604 391.271C721.936 391.603 721.972 392.466 721.683 393.188ZM720.662 399.25C720.385 399.938 720.158 399.375 720.158 398C720.158 396.625 720.385 396.063 720.662 396.75C720.94 397.438 720.94 398.563 720.662 399.25ZM719.662 404.25C719.385 404.938 719.158 404.375 719.158 403C719.158 401.625 719.385 401.063 719.662 401.75C719.94 402.438 719.94 403.563 719.662 404.25ZM718.662 410.25C718.385 410.938 718.158 410.375 718.158 409C718.158 407.625 718.385 407.063 718.662 407.75C718.94 408.438 718.94 409.563 718.662 410.25ZM717.662 416.25C717.385 416.938 717.158 416.375 717.158 415C717.158 413.625 717.385 413.063 717.662 413.75C717.94 414.438 717.94 415.563 717.662 416.25ZM716.662 422.25C716.385 422.938 716.158 422.375 716.158 421C716.158 419.625 716.385 419.063 716.662 419.75C716.94 420.438 716.94 421.563 716.662 422.25ZM715.662 428.25C715.385 428.938 715.158 428.375 715.158 427C715.158 425.625 715.385 425.063 715.662 425.75C715.94 426.438 715.94 427.563 715.662 428.25ZM714.662 435.25C714.385 435.938 714.158 435.375 714.158 434C714.158 432.625 714.385 432.063 714.662 432.75C714.94 433.438 714.94 434.563 714.662 435.25ZM713.693 441.731C713.439 442.704 713.215 442.15 713.195 440.5C713.175 438.85 713.382 438.054 713.656 438.731C713.93 439.408 713.947 440.758 713.693 441.731ZM712.662 449.25C712.385 449.938 712.158 449.375 712.158 448C712.158 446.625 712.385 446.063 712.662 446.75C712.94 447.438 712.94 448.563 712.662 449.25ZM711.693 456.731C711.439 457.704 711.215 457.15 711.195 455.5C711.175 453.85 711.382 453.054 711.656 453.731C711.93 454.408 711.947 455.758 711.693 456.731ZM710.693 464.731C710.439 465.704 710.215 465.15 710.195 463.5C710.175 461.85 710.382 461.054 710.656 461.731C710.93 462.408 710.947 463.758 710.693 464.731ZM709.689 473.75C709.438 474.712 709.232 473.925 709.232 472C709.232 470.075 709.438 469.288 709.689 470.25C709.941 471.212 709.941 472.788 709.689 473.75ZM708.689 482.75C708.438 483.712 708.232 482.925 708.232 481C708.232 479.075 708.438 478.288 708.689 479.25C708.941 480.212 708.941 481.788 708.689 482.75ZM707.689 492.75C707.438 493.712 707.232 492.925 707.232 491C707.232 489.075 707.438 488.288 707.689 489.25C707.941 490.212 707.941 491.788 707.689 492.75ZM706.707 503.238C706.468 504.482 706.263 503.7 706.252 501.5C706.241 499.3 706.437 498.282 706.687 499.238C706.937 500.194 706.946 501.994 706.707 503.238ZM705.706 516.25C705.467 517.487 705.272 516.475 705.272 514C705.272 511.525 705.467 510.512 705.706 511.75C705.944 512.987 705.944 515.013 705.706 516.25ZM704.706 528.25C704.467 529.487 704.272 528.475 704.272 526C704.272 523.525 704.467 522.513 704.706 523.75C704.944 524.987 704.944 527.013 704.706 528.25ZM703.689 538.75C703.438 539.712 703.232 538.925 703.232 537C703.232 535.075 703.438 534.288 703.689 535.25C703.941 536.212 703.941 537.788 703.689 538.75ZM702.689 548.75C702.438 549.712 702.232 548.925 702.232 547C702.232 545.075 702.438 544.288 702.689 545.25C702.941 546.212 702.941 547.788 702.689 548.75ZM701.693 556.731C701.439 557.704 701.215 557.15 701.195 555.5C701.175 553.85 701.382 553.054 701.656 553.731C701.93 554.408 701.947 555.758 701.693 556.731ZM700.693 564.731C700.439 565.704 700.215 565.15 700.195 563.5C700.175 561.85 700.382 561.054 700.656 561.731C700.93 562.408 700.947 563.758 700.693 564.731ZM699.662 572.25C699.385 572.938 699.158 572.375 699.158 571C699.158 569.625 699.385 569.063 699.662 569.75C699.94 570.438 699.94 571.563 699.662 572.25ZM698.662 579.25C698.385 579.938 698.158 579.375 698.158 578C698.158 576.625 698.385 576.063 698.662 576.75C698.94 577.438 698.94 578.563 698.662 579.25ZM697.662 586.25C697.385 586.938 697.158 586.375 697.158 585C697.158 583.625 697.385 583.063 697.662 583.75C697.94 584.438 697.94 585.563 697.662 586.25ZM696.662 592.25C696.385 592.938 696.158 592.375 696.158 591C696.158 589.625 696.385 589.063 696.662 589.75C696.94 590.438 696.94 591.563 696.662 592.25ZM695.662 598.25C695.385 598.938 695.158 598.375 695.158 597C695.158 595.625 695.385 595.063 695.662 595.75C695.94 596.438 695.94 597.563 695.662 598.25ZM694.662 604.25C694.385 604.938 694.158 604.375 694.158 603C694.158 601.625 694.385 601.063 694.662 601.75C694.94 602.438 694.94 603.563 694.662 604.25ZM693.662 609.25C693.385 609.938 693.158 609.375 693.158 608C693.158 606.625 693.385 606.063 693.662 606.75C693.94 607.438 693.94 608.563 693.662 609.25ZM692.683 614.188C692.364 614.985 692.127 614.748 692.079 613.583C692.036 612.529 692.272 611.939 692.604 612.271C692.936 612.603 692.972 613.466 692.683 614.188ZM691.683 619.188C691.364 619.985 691.127 619.748 691.079 618.583C691.036 617.529 691.272 616.939 691.604 617.271C691.936 617.603 691.972 618.466 691.683 619.188ZM690.683 624.188C690.364 624.985 690.127 624.748 690.079 623.583C690.036 622.529 690.272 621.939 690.604 622.271C690.936 622.603 690.972 623.466 690.683 624.188ZM689.683 629.188C689.364 629.985 689.127 629.748 689.079 628.583C689.036 627.529 689.272 626.939 689.604 627.271C689.936 627.603 689.972 628.466 689.683 629.188ZM688.683 634.188C688.364 634.985 688.127 634.748 688.079 633.583C688.036 632.529 688.272 631.939 688.604 632.271C688.936 632.603 688.972 633.466 688.683 634.188ZM687.683 638.188C687.364 638.985 687.127 638.748 687.079 637.583C687.036 636.529 687.272 635.939 687.604 636.271C687.936 636.603 687.972 637.466 687.683 638.188ZM686.683 643.188C686.364 643.985 686.127 643.748 686.079 642.583C686.036 641.529 686.272 640.939 686.604 641.271C686.936 641.603 686.972 642.466 686.683 643.188ZM685.683 647.188C685.364 647.985 685.127 647.748 685.079 646.583C685.036 645.529 685.272 644.939 685.604 645.271C685.936 645.603 685.972 646.466 685.683 647.188ZM684.683 651.188C684.364 651.985 684.127 651.748 684.079 650.583C684.036 649.529 684.272 648.939 684.604 649.271C684.936 649.603 684.972 650.466 684.683 651.188ZM683.683 655.188C683.364 655.985 683.127 655.748 683.079 654.583C683.036 653.529 683.272 652.939 683.604 653.271C683.936 653.603 683.972 654.466 683.683 655.188ZM682.683 659.188C682.364 659.985 682.127 659.748 682.079 658.583C682.036 657.529 682.272 656.939 682.604 657.271C682.936 657.603 682.972 658.466 682.683 659.188ZM681.683 663.188C681.364 663.985 681.127 663.748 681.079 662.583C681.036 661.529 681.272 660.939 681.604 661.271C681.936 661.603 681.972 662.466 681.683 663.188ZM680.683 667.188C680.364 667.985 680.127 667.748 680.079 666.583C680.036 665.529 680.272 664.939 680.604 665.271C680.936 665.603 680.972 666.466 680.683 667.188ZM678.683 674.188C678.364 674.985 678.127 674.748 678.079 673.583C678.036 672.529 678.272 671.939 678.604 672.271C678.936 672.603 678.972 673.466 678.683 674.188ZM676.683 681.188C676.364 681.985 676.127 681.748 676.079 680.583C676.036 679.529 676.272 678.939 676.604 679.271C676.936 679.603 676.972 680.466 676.683 681.188ZM674.683 688.188C674.364 688.985 674.127 688.748 674.079 687.583C674.036 686.529 674.272 685.939 674.604 686.271C674.936 686.603 674.972 687.466 674.683 688.188ZM670.683 701.188C670.364 701.985 670.127 701.748 670.079 700.583C670.036 699.529 670.272 698.939 670.604 699.271C670.936 699.603 670.972 700.466 670.683 701.188ZM665.122 717.675C663.943 719.702 663.659 719.053 664.624 716.539C664.966 715.645 665.458 715.124 665.715 715.382C665.973 715.639 665.706 716.671 665.122 717.675ZM660.122 731.675C658.943 733.702 658.659 733.053 659.624 730.539C659.966 729.645 660.458 729.124 660.715 729.382C660.973 729.639 660.706 730.671 660.122 731.675ZM657.122 739.675C655.943 741.702 655.659 741.053 656.624 738.539C656.966 737.645 657.458 737.124 657.715 737.382C657.973 737.639 657.706 738.671 657.122 739.675ZM655.122 744.675C653.943 746.702 653.659 746.053 654.624 743.539C654.966 742.645 655.458 742.124 655.715 742.382C655.973 742.639 655.706 743.671 655.122 744.675ZM653.122 749.675C651.943 751.702 651.659 751.053 652.624 748.539C652.966 747.645 653.458 747.124 653.715 747.382C653.973 747.639 653.706 748.671 653.122 749.675ZM651.122 754.675C649.943 756.702 649.659 756.053 650.624 753.539C650.966 752.645 651.458 752.124 651.715 752.382C651.973 752.639 651.706 753.671 651.122 754.675ZM648.122 761.675C646.943 763.702 646.659 763.053 647.624 760.539C647.966 759.645 648.458 759.124 648.715 759.382C648.973 759.639 648.706 760.671 648.122 761.675ZM645.122 768.675C643.943 770.702 643.659 770.053 644.624 767.539C644.966 766.645 645.458 766.124 645.715 766.382C645.973 766.639 645.706 767.671 645.122 768.675ZM640.116 779.656C639.001 781.77 638.069 783.178 638.044 782.784C637.973 781.634 641.319 774.986 641.752 775.418C641.968 775.634 641.232 777.541 640.116 779.656ZM623 814C621.878 816.2 620.734 818 620.459 818C620.184 818 620.878 816.2 622 814C623.122 811.8 624.266 810 624.541 810C624.816 810 624.122 811.8 623 814ZM618 823C617.411 824.1 616.705 825 616.43 825C616.155 825 616.411 824.1 617 823C617.589 821.9 618.295 821 618.57 821C618.845 821 618.589 821.9 618 823ZM614 830C613.411 831.1 612.705 832 612.43 832C612.155 832 612.411 831.1 613 830C613.589 828.9 614.295 828 614.57 828C614.845 828 614.589 828.9 614 830ZM611 835C610.411 836.1 609.705 837 609.43 837C609.155 837 609.411 836.1 610 835C610.589 833.9 611.295 833 611.57 833C611.845 833 611.589 833.9 611 835ZM608 840C607.411 841.1 606.705 842 606.43 842C606.155 842 606.411 841.1 607 840C607.589 838.9 608.295 838 608.57 838C608.845 838 608.589 838.9 608 840ZM605 845C604.411 846.1 603.705 847 603.43 847C603.155 847 603.411 846.1 604 845C604.589 843.9 605.295 843 605.57 843C605.845 843 605.589 843.9 605 845ZM600.38 852.25C597.976 856.323 587.869 871 587.469 871C587.205 871 589.985 866.5 593.647 861C597.309 855.5 600.488 851 600.712 851C600.935 851 600.786 851.563 600.38 852.25ZM585 875.378C585 875.585 584.212 876.373 583.25 877.128C581.664 878.371 581.629 878.336 582.872 876.75C584.179 875.084 585 874.555 585 875.378ZM580 882.378C580 882.585 579.212 883.373 578.25 884.128C576.664 885.371 576.629 885.336 577.872 883.75C579.179 882.084 580 881.555 580 882.378ZM577 886.378C577 886.585 576.212 887.373 575.25 888.128C573.664 889.371 573.629 889.336 574.872 887.75C576.179 886.084 577 885.555 577 886.378ZM571 894C569.258 896.2 567.607 898 567.332 898C567.057 898 568.258 896.2 570 894C571.742 891.8 573.393 890 573.668 890C573.943 890 572.742 891.8 571 894ZM567 899.345C567 899.535 565.987 900.547 564.75 901.595L562.5 903.5L564.405 901.25C566.195 899.136 567 898.545 567 899.345ZM563 904.326C563 904.505 561.763 905.742 560.25 907.076L557.5 909.5L559.924 906.75C562.19 904.18 563 903.541 563 904.326ZM558 910.326C558 910.505 556.763 911.742 555.25 913.076L552.5 915.5L554.924 912.75C557.19 910.18 558 909.541 558 910.326ZM552 917.304C552 917.471 550.313 919.158 548.25 921.054L544.5 924.5L547.946 920.75C551.154 917.26 552 916.54 552 917.304ZM538 932.5C533.903 936.625 530.325 940 530.05 940C529.775 940 532.903 936.625 537 932.5C541.097 928.375 544.675 925 544.95 925C545.225 925 542.097 928.375 538 932.5ZM523 947.277C523 947.429 519.737 950.692 515.75 954.527L508.5 961.5L515.473 954.25C521.95 947.516 523 946.543 523 947.277ZM507 962.313C507 962.485 505.538 963.948 503.75 965.563L500.5 968.5L503.437 965.25C506.175 962.221 507 961.54 507 962.313ZM499 969.326C499 969.505 497.762 970.742 496.25 972.076L493.5 974.5L495.924 971.75C498.19 969.18 499 968.541 499 969.326ZM493 974.345C493 974.535 491.988 975.547 490.75 976.595L488.5 978.5L490.405 976.25C492.195 974.136 493 973.545 493 974.345ZM488 978.345C488 978.535 486.988 979.547 485.75 980.595L483.5 982.5L485.405 980.25C487.195 978.136 488 977.545 488 978.345ZM483 982.378C483 982.585 482.212 983.373 481.25 984.128C479.664 985.371 479.629 985.336 480.872 983.75C482.179 982.084 483 981.555 483 982.378ZM479 985.378C479 985.585 478.212 986.373 477.25 987.128C475.664 988.371 475.629 988.336 476.872 986.75C478.179 985.084 479 984.555 479 985.378ZM475 988.378C475 988.585 474.212 989.373 473.25 990.128C471.664 991.371 471.629 991.336 472.872 989.75C474.179 988.084 475 987.555 475 988.378ZM443 1009.47C443 1009.72 441.988 1010.42 440.75 1011.02C438.589 1012.07 438.577 1012.05 440.441 1010.55C442.481 1008.92 443 1008.7 443 1009.47Z" fill="#6D85FF"/>
<path fill-rule="evenodd" clip-rule="evenodd" d="M0 511.999V1024L720 1024L1440 1024V512.001V0.003L720 0.001L0 0V511.999ZM930 1.367C930 1.569 928.2 2.925 926 4.381C923.8 5.837 922 6.813 922 6.55C922 6.111 929.12 1 929.732 1C929.879 1 930 1.165 930 1.367ZM921 7.381C921 7.591 919.313 8.974 917.25 10.453L913.5 13.144L916.962 10.072C920.373 7.046 921 6.628 921 7.381ZM913 13.345C913 13.535 911.987 14.547 910.75 15.595L908.5 17.5L910.405 15.25C912.195 13.136 913 12.545 913 13.345ZM908 17.313C908 17.485 906.538 18.948 904.75 20.563L901.5 23.5L904.437 20.25C907.175 17.221 908 16.54 908 17.313ZM901 23.264C901 23.409 894.813 29.597 887.25 37.014L873.5 50.5L886.986 36.75C899.514 23.977 901 22.547 901 23.264ZM874 51.304C874 51.471 872.313 53.158 870.25 55.054L866.5 58.5L869.946 54.75C873.154 51.26 874 50.54 874 51.304ZM867 59.326C867 59.505 865.763 60.742 864.25 62.076L861.5 64.5L863.924 61.75C866.19 59.18 867 58.541 867 59.326ZM862 65.345C862 65.535 860.987 66.547 859.75 67.595L857.5 69.5L859.405 67.25C861.195 65.136 862 64.545 862 65.345ZM858 70.345C858 70.535 856.987 71.547 855.75 72.595L853.5 74.5L855.405 72.25C857.195 70.136 858 69.545 858 70.345ZM849.912 80.5C847.628 83.525 845.534 86 845.257 86C844.981 86 845.177 85.438 845.692 84.75C850.143 78.813 853.242 75 853.616 75C853.863 75 852.196 77.475 849.912 80.5ZM845 87.378C845 87.585 844.212 88.373 843.25 89.128C841.664 90.371 841.629 90.336 842.872 88.75C844.179 87.084 845 86.555 845 87.378ZM838 97C836.825 98.65 835.639 100 835.364 100C835.089 100 835.825 98.65 837 97C838.175 95.35 839.361 94 839.636 94C839.911 94 839.175 95.35 838 97ZM828.108 111.75C827.579 112.713 826.391 114.4 825.468 115.5C823.856 117.42 823.846 117.4 825.217 115C827.837 110.413 828.115 110 828.594 110C828.856 110 828.638 110.787 828.108 111.75ZM821 123C820.411 124.1 819.705 125 819.43 125C819.155 125 819.411 124.1 820 123C820.589 121.9 821.295 121 821.57 121C821.845 121 821.589 121.9 821 123ZM818 128C817.411 129.1 816.705 130 816.43 130C816.155 130 816.411 129.1 817 128C817.589 126.9 818.295 126 818.57 126C818.845 126 818.589 126.9 818 128ZM815 133C814.411 134.1 813.705 135 813.43 135C813.155 135 813.411 134.1 814 133C814.589 131.9 815.295 131 815.57 131C815.845 131 815.589 131.9 815 133ZM811 140C810.411 141.1 809.705 142 809.43 142C809.155 142 809.411 141.1 810 140C810.589 138.9 811.295 138 811.57 138C811.845 138 811.589 138.9 811 140ZM806.5 148C805.647 149.65 804.724 151 804.449 151C804.174 151 804.647 149.65 805.5 148C806.353 146.35 807.276 145 807.551 145C807.826 145 807.353 146.35 806.5 148ZM794.284 171.454C790.044 179.954 786.419 186.752 786.228 186.561C785.787 186.121 800.841 156 801.502 156C801.771 156 798.523 162.954 794.284 171.454ZM782.116 196.656C781.001 198.77 780.069 200.178 780.044 199.784C779.973 198.634 783.319 191.986 783.752 192.418C783.968 192.634 783.232 194.541 782.116 196.656ZM778.122 205.675C776.943 207.702 776.659 207.053 777.624 204.539C777.966 203.645 778.458 203.124 778.715 203.382C778.973 203.639 778.706 204.671 778.122 205.675ZM775.122 212.675C773.943 214.702 773.659 214.053 774.624 211.539C774.966 210.645 775.458 210.124 775.715 210.382C775.973 210.639 775.706 211.671 775.122 212.675ZM772.122 219.675C770.943 221.702 770.659 221.053 771.624 218.539C771.966 217.645 772.458 217.124 772.715 217.382C772.973 217.639 772.706 218.671 772.122 219.675ZM770.122 224.675C768.943 226.702 768.659 226.053 769.624 223.539C769.966 222.645 770.458 222.124 770.715 222.382C770.973 222.639 770.706 223.671 770.122 224.675ZM768.122 229.675C766.943 231.702 766.659 231.053 767.624 228.539C767.966 227.645 768.458 227.124 768.715 227.382C768.973 227.639 768.706 228.671 768.122 229.675ZM766.122 234.675C764.943 236.702 764.659 236.053 765.624 233.539C765.966 232.645 766.458 232.124 766.715 232.382C766.973 232.639 766.706 233.671 766.122 234.675ZM763.122 242.675C761.943 244.702 761.659 244.053 762.624 241.539C762.966 240.645 763.458 240.124 763.715 240.382C763.973 240.639 763.706 241.671 763.122 242.675ZM759.889 251.889C759.273 253.656 758.594 254.927 758.38 254.713C758.166 254.499 758.495 252.878 759.111 251.111C759.727 249.344 760.406 248.073 760.62 248.287C760.834 248.501 760.505 250.122 759.889 251.889ZM746.909 290.909C746.233 293.166 745.495 294.829 745.27 294.604C745.045 294.379 745.415 292.348 746.091 290.091C746.767 287.834 747.505 286.171 747.73 286.396C747.955 286.621 747.585 288.652 746.909 290.909ZM743.683 301.188C743.364 301.985 743.127 301.748 743.079 300.583C743.036 299.529 743.272 298.939 743.604 299.271C743.936 299.603 743.972 300.466 743.683 301.188ZM741.429 309.429C741.061 310.894 740.567 311.9 740.331 311.665C740.096 311.429 740.204 310.037 740.571 308.571C740.939 307.106 741.433 306.1 741.669 306.335C741.904 306.571 741.796 307.963 741.429 309.429ZM739.683 315.188C739.364 315.985 739.127 315.748 739.079 314.583C739.036 313.529 739.272 312.939 739.604 313.271C739.936 313.603 739.972 314.466 739.683 315.188ZM738.429 320.429C738.061 321.894 737.567 322.9 737.331 322.665C737.096 322.429 737.204 321.037 737.571 319.571C737.939 318.106 738.433 317.1 738.669 317.335C738.904 317.571 738.796 318.963 738.429 320.429ZM736.683 326.188C736.364 326.985 736.127 326.748 736.079 325.583C736.036 324.529 736.272 323.939 736.604 324.271C736.936 324.603 736.972 325.466 736.683 326.188ZM735.683 330.188C735.364 330.985 735.127 330.748 735.079 329.583C735.036 328.529 735.272 327.939 735.604 328.271C735.936 328.603 735.972 329.466 735.683 330.188ZM734.683 334.188C734.364 334.985 734.127 334.748 734.079 333.583C734.036 332.529 734.272 331.939 734.604 332.271C734.936 332.603 734.972 333.466 734.683 334.188ZM733.683 338.188C733.364 338.985 733.127 338.748 733.079 337.583C733.036 336.529 733.272 335.939 733.604 336.271C733.936 336.603 733.972 337.466 733.683 338.188ZM732.683 342.188C732.364 342.985 732.127 342.748 732.079 341.583C732.036 340.529 732.272 339.939 732.604 340.271C732.936 340.603 732.972 341.466 732.683 342.188ZM731.683 346.188C731.364 346.985 731.127 346.748 731.079 345.583C731.036 344.529 731.272 343.939 731.604 344.271C731.936 344.603 731.972 345.466 731.683 346.188ZM730.683 350.188C730.364 350.985 730.127 350.748 730.079 349.583C730.036 348.529 730.272 347.939 730.604 348.271C730.936 348.603 730.972 349.466 730.683 350.188ZM729.662 355.25C729.385 355.938 729.158 355.375 729.158 354C729.158 352.625 729.385 352.063 729.662 352.75C729.94 353.438 729.94 354.563 729.662 355.25ZM728.683 359.188C728.364 359.985 728.127 359.748 728.079 358.583C728.036 357.529 728.272 356.939 728.604 357.271C728.936 357.603 728.972 358.466 728.683 359.188ZM727.662 364.25C727.385 364.938 727.158 364.375 727.158 363C727.158 361.625 727.385 361.063 727.662 361.75C727.94 362.438 727.94 363.563 727.662 364.25ZM726.683 368.188C726.364 368.985 726.127 368.748 726.079 367.583C726.036 366.529 726.272 365.939 726.604 366.271C726.936 366.603 726.972 367.466 726.683 368.188ZM725.662 373.25C725.385 373.938 725.158 373.375 725.158 372C725.158 370.625 725.385 370.063 725.662 370.75C725.94 371.438 725.94 372.563 725.662 373.25ZM724.662 378.25C724.385 378.938 724.158 378.375 724.158 377C724.158 375.625 724.385 375.063 724.662 375.75C724.94 376.438 724.94 377.563 724.662 378.25ZM723.662 383.25C723.385 383.938 723.158 383.375 723.158 382C723.158 380.625 723.385 380.063 723.662 380.75C723.94 381.438 723.94 382.563 723.662 383.25ZM722.662 388.25C722.385 388.938 722.158 388.375 722.158 387C722.158 385.625 722.385 385.063 722.662 385.75C722.94 386.438 722.94 387.563 722.662 388.25ZM721.662 393.25C721.385 393.938 721.158 393.375 721.158 392C721.158 390.625 721.385 390.063 721.662 390.75C721.94 391.438 721.94 392.563 721.662 393.25ZM720.693 398.731C720.439 399.704 720.215 399.15 720.195 397.5C720.175 395.85 720.382 395.054 720.656 395.731C720.93 396.408 720.947 397.758 720.693 398.731ZM719.662 404.25C719.385 404.938 719.158 404.375 719.158 403C719.158 401.625 719.385 401.063 719.662 401.75C719.94 402.438 719.94 403.563 719.662 404.25ZM718.693 409.731C718.439 410.704 718.215 410.15 718.195 408.5C718.175 406.85 718.382 406.054 718.656 406.731C718.93 407.408 718.947 408.758 718.693 409.731ZM717.693 415.731C717.439 416.704 717.215 416.15 717.195 414.5C717.175 412.85 717.382 412.054 717.656 412.731C717.93 413.408 717.947 414.758 717.693 415.731ZM716.693 421.731C716.439 422.704 716.215 422.15 716.195 420.5C716.175 418.85 716.382 418.054 716.656 418.731C716.93 419.408 716.947 420.758 716.693 421.731ZM715.662 428.25C715.385 428.938 715.158 428.375 715.158 427C715.158 425.625 715.385 425.063 715.662 425.75C715.94 426.438 715.94 427.563 715.662 428.25ZM714.693 434.731C714.439 435.704 714.215 435.15 714.195 433.5C714.175 431.85 714.382 431.054 714.656 431.731C714.93 432.408 714.947 433.758 714.693 434.731ZM713.693 441.731C713.439 442.704 713.215 442.15 713.195 440.5C713.175 438.85 713.382 438.054 713.656 438.731C713.93 439.408 713.947 440.758 713.693 441.731ZM712.693 448.731C712.439 449.704 712.215 449.15 712.195 447.5C712.175 445.85 712.382 445.054 712.656 445.731C712.93 446.408 712.947 447.758 712.693 448.731ZM711.689 456.75C711.438 457.712 711.232 456.925 711.232 455C711.232 453.075 711.438 452.288 711.689 453.25C711.941 454.212 711.941 455.788 711.689 456.75ZM710.689 464.75C710.438 465.712 710.232 464.925 710.232 463C710.232 461.075 710.438 460.288 710.689 461.25C710.941 462.212 710.941 463.788 710.689 464.75ZM709.707 473.238C709.468 474.482 709.263 473.7 709.252 471.5C709.241 469.3 709.437 468.282 709.687 469.238C709.937 470.194 709.946 471.994 709.707 473.238ZM708.707 482.238C708.468 483.482 708.263 482.7 708.252 480.5C708.241 478.3 708.437 477.282 708.687 478.238C708.937 479.194 708.946 480.994 708.707 482.238ZM707.707 492.238C707.468 493.482 707.263 492.7 707.252 490.5C707.241 488.3 707.437 487.282 707.687 488.238C707.937 489.194 707.946 490.994 707.707 492.238ZM706.706 503.25C706.467 504.488 706.272 503.475 706.272 501C706.272 498.525 706.467 497.512 706.706 498.75C706.944 499.988 706.944 502.012 706.706 503.25ZM705.716 515.75C705.487 517.263 705.3 516.025 705.3 513C705.3 509.975 705.487 508.738 705.716 510.25C705.945 511.762 705.945 514.237 705.716 515.75ZM704.718 527.736C704.488 529.256 704.294 528.25 704.286 525.5C704.279 522.75 704.467 521.506 704.704 522.736C704.941 523.966 704.947 526.216 704.718 527.736ZM703.707 538.238C703.468 539.482 703.263 538.7 703.252 536.5C703.241 534.3 703.437 533.282 703.687 534.238C703.937 535.194 703.946 536.994 703.707 538.238ZM702.707 548.238C702.468 549.482 702.263 548.7 702.252 546.5C702.241 544.3 702.437 543.282 702.687 544.238C702.937 545.194 702.946 546.994 702.707 548.238ZM701.689 556.75C701.438 557.712 701.232 556.925 701.232 555C701.232 553.075 701.438 552.288 701.689 553.25C701.941 554.212 701.941 555.788 701.689 556.75ZM700.689 564.75C700.438 565.712 700.232 564.925 700.232 563C700.232 561.075 700.438 560.288 700.689 561.25C700.941 562.212 700.941 563.788 700.689 564.75ZM699.693 571.731C699.439 572.704 699.215 572.15 699.195 570.5C699.175 568.85 699.382 568.054 699.656 568.731C699.93 569.408 699.947 570.758 699.693 571.731ZM698.693 578.731C698.439 579.704 698.215 579.15 698.195 577.5C698.175 575.85 698.382 575.054 698.656 575.731C698.93 576.408 698.947 577.758 698.693 578.731ZM697.693 585.731C697.439 586.704 697.215 586.15 697.195 584.5C697.175 582.85 697.382 582.054 697.656 582.731C697.93 583.408 697.947 584.758 697.693 585.731ZM696.693 591.731C696.439 592.704 696.215 592.15 696.195 590.5C696.175 588.85 696.382 588.054 696.656 588.731C696.93 589.408 696.947 590.758 696.693 591.731ZM695.693 597.731C695.439 598.704 695.215 598.15 695.195 596.5C695.175 594.85 695.382 594.054 695.656 594.731C695.93 595.408 695.947 596.758 695.693 597.731ZM694.693 603.731C694.439 604.704 694.215 604.15 694.195 602.5C694.175 600.85 694.382 600.054 694.656 600.731C694.93 601.408 694.947 602.758 694.693 603.731ZM693.662 609.25C693.385 609.938 693.158 609.375 693.158 608C693.158 606.625 693.385 606.063 693.662 606.75C693.94 607.438 693.94 608.563 693.662 609.25ZM692.662 614.25C692.385 614.938 692.158 614.375 692.158 613C692.158 611.625 692.385 611.063 692.662 611.75C692.94 612.438 692.94 613.563 692.662 614.25ZM691.683 619.188C691.364 619.985 691.127 619.748 691.079 618.583C691.036 617.529 691.272 616.939 691.604 617.271C691.936 617.603 691.972 618.466 691.683 619.188ZM690.683 624.188C690.364 624.985 690.127 624.748 690.079 623.583C690.036 622.529 690.272 621.939 690.604 622.271C690.936 622.603 690.972 623.466 690.683 624.188ZM689.662 629.25C689.385 629.938 689.158 629.375 689.158 628C689.158 626.625 689.385 626.063 689.662 626.75C689.94 627.438 689.94 628.563 689.662 629.25ZM688.662 634.25C688.385 634.938 688.158 634.375 688.158 633C688.158 631.625 688.385 631.063 688.662 631.75C688.94 632.438 688.94 633.563 688.662 634.25ZM687.683 638.188C687.364 638.985 687.127 638.748 687.079 637.583C687.036 636.529 687.272 635.939 687.604 636.271C687.936 636.603 687.972 637.466 687.683 638.188ZM686.444 644.444C686.068 646.451 685.56 647.893 685.315 647.649C685.071 647.404 685.179 645.562 685.556 643.556C685.932 641.549 686.44 640.107 686.685 640.351C686.929 640.596 686.821 642.438 686.444 644.444ZM684.683 651.188C684.364 651.985 684.127 651.748 684.079 650.583C684.036 649.529 684.272 648.939 684.604 649.271C684.936 649.603 684.972 650.466 684.683 651.188ZM683.683 655.188C683.364 655.985 683.127 655.748 683.079 654.583C683.036 653.529 683.272 652.939 683.604 653.271C683.936 653.603 683.972 654.466 683.683 655.188ZM682.683 659.188C682.364 659.985 682.127 659.748 682.079 658.583C682.036 657.529 682.272 656.939 682.604 657.271C682.936 657.603 682.972 658.466 682.683 659.188ZM681.683 663.188C681.364 663.985 681.127 663.748 681.079 662.583C681.036 661.529 681.272 660.939 681.604 661.271C681.936 661.603 681.972 662.466 681.683 663.188ZM680.429 668.429C680.061 669.894 679.567 670.9 679.331 670.665C679.096 670.429 679.204 669.037 679.571 667.571C679.939 666.106 680.433 665.1 680.669 665.335C680.904 665.571 680.796 666.963 680.429 668.429ZM678.683 674.188C678.364 674.985 678.127 674.748 678.079 673.583C678.036 672.529 678.272 671.939 678.604 672.271C678.936 672.603 678.972 673.466 678.683 674.188ZM676.683 681.188C676.364 681.985 676.127 681.748 676.079 680.583C676.036 679.529 676.272 678.939 676.604 679.271C676.936 679.603 676.972 680.466 676.683 681.188ZM674.429 689.429C674.061 690.894 673.567 691.9 673.331 691.665C673.096 691.429 673.204 690.037 673.571 688.571C673.939 687.106 674.433 686.1 674.669 686.335C674.904 686.571 674.796 687.963 674.429 689.429ZM668 709.5C666.236 714.794 664.626 718.959 664.422 718.755C664.218 718.551 665.482 714.04 667.231 708.731C668.98 703.421 670.59 699.256 670.809 699.475C671.028 699.694 669.764 704.206 668 709.5ZM660.889 729.889C660.273 731.656 659.594 732.927 659.38 732.713C659.166 732.499 659.495 730.878 660.111 729.111C660.727 727.344 661.406 726.073 661.62 726.287C661.834 726.501 661.505 728.122 660.889 729.889ZM657.889 737.889C657.273 739.656 656.594 740.927 656.38 740.713C656.166 740.499 656.495 738.878 657.111 737.111C657.727 735.344 658.406 734.073 658.62 734.287C658.834 734.501 658.505 736.122 657.889 737.889ZM655.122 744.675C653.943 746.702 653.659 746.053 654.624 743.539C654.966 742.645 655.458 742.124 655.715 742.382C655.973 742.639 655.706 743.671 655.122 744.675ZM653.122 749.675C651.943 751.702 651.659 751.053 652.624 748.539C652.966 747.645 653.458 747.124 653.715 747.382C653.973 747.639 653.706 748.671 653.122 749.675ZM650.618 755.662C649.772 757.223 649.062 758.184 649.04 757.797C648.972 756.608 651.299 751.965 651.741 752.407C651.969 752.636 651.464 754.1 650.618 755.662ZM648.122 761.675C646.943 763.702 646.659 763.053 647.624 760.539C647.966 759.645 648.458 759.124 648.715 759.382C648.973 759.639 648.706 760.671 648.122 761.675ZM644.618 769.662C643.772 771.223 643.062 772.184 643.04 771.797C642.972 770.608 645.299 765.965 645.741 766.407C645.969 766.636 645.464 768.1 644.618 769.662ZM639.615 780.652C638.228 783.318 637.072 785.175 637.047 784.777C636.974 783.647 641.331 774.998 641.757 775.424C641.967 775.633 641.003 777.986 639.615 780.652ZM623.5 813C622.106 815.75 620.741 818 620.466 818C620.191 818 621.106 815.75 622.5 813C623.894 810.25 625.259 808 625.534 808C625.809 808 624.894 810.25 623.5 813ZM618.5 822C617.647 823.65 616.724 825 616.449 825C616.174 825 616.647 823.65 617.5 822C618.353 820.35 619.276 819 619.551 819C619.826 819 619.353 820.35 618.5 822ZM614 830C613.411 831.1 612.705 832 612.43 832C612.155 832 612.411 831.1 613 830C613.589 828.9 614.295 828 614.57 828C614.845 828 614.589 828.9 614 830ZM611 835C610.411 836.1 609.705 837 609.43 837C609.155 837 609.411 836.1 610 835C610.589 833.9 611.295 833 611.57 833C611.845 833 611.589 833.9 611 835ZM608 840C607.411 841.1 606.705 842 606.43 842C606.155 842 606.411 841.1 607 840C607.589 838.9 608.295 838 608.57 838C608.845 838 608.589 838.9 608 840ZM605 845C604.411 846.1 603.705 847 603.43 847C603.155 847 603.411 846.1 604 845C604.589 843.9 605.295 843 605.57 843C605.845 843 605.589 843.9 605 845ZM600.38 852.25C597.976 856.323 587.869 871 587.469 871C587.205 871 589.985 866.5 593.647 861C597.309 855.5 600.488 851 600.712 851C600.935 851 600.786 851.563 600.38 852.25ZM585 875.378C585 875.585 584.212 876.373 583.25 877.128C581.664 878.371 581.629 878.336 582.872 876.75C584.179 875.084 585 874.555 585 875.378ZM580 882C578.825 883.65 577.639 885 577.364 885C577.089 885 577.825 883.65 579 882C580.175 880.35 581.361 879 581.636 879C581.911 879 581.175 880.35 580 882ZM577 886.378C577 886.585 576.212 887.373 575.25 888.128C573.664 889.371 573.629 889.336 574.872 887.75C576.179 886.084 577 885.555 577 886.378ZM571 894C569.258 896.2 567.607 898 567.332 898C567.057 898 568.258 896.2 570 894C571.742 891.8 573.393 890 573.668 890C573.943 890 572.742 891.8 571 894ZM567 899.345C567 899.535 565.987 900.547 564.75 901.595L562.5 903.5L564.405 901.25C566.195 899.136 567 898.545 567 899.345ZM563 904.326C563 904.505 561.763 905.742 560.25 907.076L557.5 909.5L559.924 906.75C562.19 904.18 563 903.541 563 904.326ZM558 910.313C558 910.485 556.538 911.948 554.75 913.563L551.5 916.5L554.437 913.25C557.175 910.221 558 909.54 558 910.313ZM552 917.304C552 917.471 550.313 919.158 548.25 921.054L544.5 924.5L547.946 920.75C551.154 917.26 552 916.54 552 917.304ZM538 932.5C533.903 936.625 530.325 940 530.05 940C529.775 940 532.903 936.625 537 932.5C541.097 928.375 544.675 925 544.95 925C545.225 925 542.097 928.375 538 932.5ZM517 953.5C512.903 957.625 509.325 961 509.05 961C508.775 961 511.903 957.625 516 953.5C520.097 949.375 523.675 946 523.95 946C524.225 946 521.097 949.375 517 953.5ZM508 961.304C508 961.471 506.313 963.158 504.25 965.054L500.5 968.5L503.946 964.75C507.154 961.26 508 960.54 508 961.304ZM500 968.313C500 968.485 498.538 969.948 496.75 971.563L493.5 974.5L496.437 971.25C499.175 968.221 500 967.54 500 968.313ZM493 974.345C493 974.535 491.988 975.547 490.75 976.595L488.5 978.5L490.405 976.25C492.195 974.136 493 973.545 493 974.345ZM488 978.416C488 978.645 486.087 980.262 483.75 982.011L479.5 985.189L483.5 981.61C487.546 977.988 488 977.666 488 978.416ZM479 985.378C479 985.585 478.212 986.373 477.25 987.128C475.664 988.371 475.629 988.336 476.872 986.75C478.179 985.084 479 984.555 479 985.378ZM475 988.432C475 988.669 473.538 989.832 471.75 991.015L468.5 993.165L471.5 990.588C474.577 987.944 475 987.683 475 988.432ZM453 1003.47C453 1003.72 451.988 1004.42 450.75 1005.02C448.589 1006.07 448.577 1006.05 450.441 1004.55C452.481 1002.92 453 1002.7 453 1003.47ZM448 1006.47C448 1006.72 446.988 1007.42 445.75 1008.02C443.589 1009.07 443.577 1009.05 445.441 1007.55C447.481 1005.92 448 1005.7 448 1006.47ZM443 1009.47C443 1009.73 441.65 1010.65 440 1011.5C436.239 1013.45 436.012 1012.6 439.75 1010.57C442.893 1008.87 443 1008.83 443 1009.47ZM419 1022C418.175 1022.53 417.05 1022.97 416.5 1022.97C415.95 1022.97 416.175 1022.53 417 1022C417.825 1021.47 418.95 1021.03 419.5 1021.03C420.05 1021.03 419.825 1021.47 419 1022Z" fill="#5570FF"/>
<path fill-rule="evenodd" clip-rule="evenodd" d="M0 511.998V1024L720 1024L1440 1024V512V0H1186.18H932.356L924.928 5.104C894.069 26.308 859.463 63.983 830.741 107.643C799.496 155.138 773.576 210.028 752.42 273.5C747.837 287.25 744.068 297.919 744.044 297.21C743.963 294.847 759.669 248.738 766.255 232C807.467 127.27 865.656 44.465 928.019 1.802C930.354 0.205 903.186 0.102 465.25 0.052L0 0V511.998ZM742.375 305.875C741.438 309.246 740.485 311.819 740.259 311.592C740.032 311.365 740.619 308.427 741.563 305.063C742.506 301.698 743.459 299.126 743.679 299.346C743.899 299.566 743.312 302.504 742.375 305.875ZM738.917 318.417C738.271 320.98 737.556 322.889 737.327 322.66C737.097 322.431 737.438 320.146 738.083 317.583C738.729 315.02 739.444 313.111 739.673 313.34C739.903 313.569 739.562 315.854 738.917 318.417ZM734.064 336.5C732.478 342.55 731.141 346.924 731.091 346.22C730.955 344.299 736.309 323.414 736.651 324.533C736.813 325.065 735.649 330.45 734.064 336.5ZM730.683 350.188C730.364 350.985 730.127 350.748 730.079 349.583C730.036 348.529 730.272 347.939 730.604 348.271C730.936 348.603 730.972 349.466 730.683 350.188ZM729.444 356.444C729.068 358.451 728.56 359.893 728.315 359.649C728.071 359.404 728.179 357.562 728.556 355.556C728.932 353.549 729.44 352.107 729.685 352.351C729.929 352.596 729.821 354.438 729.444 356.444ZM727.444 365.444C727.068 367.451 726.56 368.893 726.315 368.649C726.071 368.404 726.179 366.562 726.556 364.556C726.932 362.549 727.44 361.107 727.685 361.351C727.929 361.596 727.821 363.438 727.444 365.444ZM725.662 373.25C725.385 373.938 725.158 373.375 725.158 372C725.158 370.625 725.385 370.063 725.662 370.75C725.94 371.438 725.94 372.563 725.662 373.25ZM723.875 382.375C723.205 386.013 722.454 388.787 722.206 388.54C721.959 388.292 722.316 385.124 723 381.5C723.684 377.876 724.435 375.101 724.669 375.335C724.902 375.569 724.545 378.737 723.875 382.375ZM721.662 393.25C721.385 393.938 721.158 393.375 721.158 392C721.158 390.625 721.385 390.063 721.662 390.75C721.94 391.438 721.94 392.563 721.662 393.25ZM720.455 400.455C720.072 403.005 719.555 404.888 719.305 404.638C719.055 404.388 719.163 402.096 719.545 399.545C719.928 396.995 720.445 395.112 720.695 395.362C720.945 395.612 720.837 397.904 720.455 400.455ZM718.693 409.731C718.439 410.704 718.215 410.15 718.195 408.5C718.175 406.85 718.382 406.054 718.656 406.731C718.93 407.408 718.947 408.758 718.693 409.731ZM717.693 415.731C717.439 416.704 717.215 416.15 717.195 414.5C717.175 412.85 717.382 412.054 717.656 412.731C717.93 413.408 717.947 414.758 717.693 415.731ZM716.693 421.731C716.439 422.704 716.215 422.15 716.195 420.5C716.175 418.85 716.382 418.054 716.656 418.731C716.93 419.408 716.947 420.758 716.693 421.731ZM715.693 427.731C715.439 428.704 715.215 428.15 715.195 426.5C715.175 424.85 715.382 424.054 715.656 424.731C715.93 425.408 715.947 426.758 715.693 427.731ZM714.689 434.75C714.438 435.712 714.232 434.925 714.232 433C714.232 431.075 714.438 430.288 714.689 431.25C714.941 432.212 714.941 433.788 714.689 434.75ZM713.689 441.75C713.438 442.712 713.232 441.925 713.232 440C713.232 438.075 713.438 437.288 713.689 438.25C713.941 439.212 713.941 440.788 713.689 441.75ZM712.689 448.75C712.438 449.712 712.232 448.925 712.232 447C712.232 445.075 712.438 444.288 712.689 445.25C712.941 446.212 712.941 447.788 712.689 448.75ZM711.689 456.75C711.438 457.712 711.232 456.925 711.232 455C711.232 453.075 711.438 452.288 711.689 453.25C711.941 454.212 711.941 455.788 711.689 456.75ZM710.707 464.238C710.468 465.482 710.263 464.7 710.252 462.5C710.241 460.3 710.437 459.282 710.687 460.238C710.937 461.194 710.946 462.994 710.707 464.238ZM709.706 473.25C709.467 474.488 709.272 473.475 709.272 471C709.272 468.525 709.467 467.512 709.706 468.75C709.944 469.988 709.944 472.012 709.706 473.25ZM708.706 482.25C708.467 483.488 708.272 482.475 708.272 480C708.272 477.525 708.467 476.512 708.706 477.75C708.944 478.988 708.944 481.012 708.706 482.25ZM707.706 492.25C707.467 493.488 707.272 492.475 707.272 490C707.272 487.525 707.467 486.512 707.706 487.75C707.944 488.988 707.944 491.012 707.706 492.25ZM706.718 502.736C706.488 504.256 706.294 503.25 706.286 500.5C706.279 497.75 706.467 496.506 706.704 497.736C706.941 498.966 706.947 501.216 706.718 502.736ZM705.725 515.232C705.502 517.029 705.315 515.8 705.31 512.5C705.304 509.2 705.486 507.729 705.715 509.232C705.943 510.735 705.947 513.435 705.725 515.232ZM704.716 527.75C704.487 529.263 704.3 528.025 704.3 525C704.3 521.975 704.487 520.737 704.716 522.25C704.945 523.763 704.945 526.237 704.716 527.75ZM703.718 537.736C703.488 539.256 703.294 538.25 703.286 535.5C703.279 532.75 703.467 531.506 703.704 532.736C703.941 533.966 703.947 536.216 703.718 537.736ZM702.706 548.25C702.467 549.487 702.272 548.475 702.272 546C702.272 543.525 702.467 542.513 702.706 543.75C702.944 544.987 702.944 547.013 702.706 548.25ZM701.707 556.238C701.468 557.482 701.263 556.7 701.252 554.5C701.241 552.3 701.437 551.282 701.687 552.238C701.937 553.194 701.946 554.994 701.707 556.238ZM700.707 564.238C700.468 565.482 700.263 564.7 700.252 562.5C700.241 560.3 700.437 559.282 700.687 560.238C700.937 561.194 700.946 562.994 700.707 564.238ZM699.689 571.75C699.438 572.712 699.232 571.925 699.232 570C699.232 568.075 699.438 567.288 699.689 568.25C699.941 569.212 699.941 570.788 699.689 571.75ZM698.689 578.75C698.438 579.712 698.232 578.925 698.232 577C698.232 575.075 698.438 574.288 698.689 575.25C698.941 576.212 698.941 577.788 698.689 578.75ZM697.689 585.75C697.438 586.712 697.232 585.925 697.232 584C697.232 582.075 697.438 581.288 697.689 582.25C697.941 583.212 697.941 584.788 697.689 585.75ZM696.693 591.731C696.439 592.704 696.215 592.15 696.195 590.5C696.175 588.85 696.382 588.054 696.656 588.731C696.93 589.408 696.947 590.758 696.693 591.731ZM695.693 597.731C695.439 598.704 695.215 598.15 695.195 596.5C695.175 594.85 695.382 594.054 695.656 594.731C695.93 595.408 695.947 596.758 695.693 597.731ZM694.455 605.455C694.072 608.005 693.555 609.888 693.305 609.638C693.055 609.388 693.163 607.096 693.545 604.545C693.928 601.995 694.445 600.112 694.695 600.362C694.945 600.612 694.837 602.904 694.455 605.455ZM692.662 614.25C692.385 614.938 692.158 614.375 692.158 613C692.158 611.625 692.385 611.063 692.662 611.75C692.94 612.438 692.94 613.563 692.662 614.25ZM691.662 619.25C691.385 619.938 691.158 619.375 691.158 618C691.158 616.625 691.385 616.063 691.662 616.75C691.94 617.438 691.94 618.563 691.662 619.25ZM690.662 624.25C690.385 624.938 690.158 624.375 690.158 623C690.158 621.625 690.385 621.063 690.662 621.75C690.94 622.438 690.94 623.563 690.662 624.25ZM689.662 629.25C689.385 629.938 689.158 629.375 689.158 628C689.158 626.625 689.385 626.063 689.662 626.75C689.94 627.438 689.94 628.563 689.662 629.25ZM688.444 635.444C688.068 637.451 687.56 638.893 687.315 638.649C687.071 638.404 687.179 636.562 687.556 634.556C687.932 632.549 688.44 631.107 688.685 631.351C688.929 631.596 688.821 633.438 688.444 635.444ZM683.5 656C681.435 664.293 679.565 670.899 679.345 670.678C679.125 670.458 680.627 663.486 682.684 655.184C684.741 646.883 686.611 640.277 686.839 640.506C687.068 640.734 685.565 647.707 683.5 656ZM678.429 675.429C678.061 676.894 677.567 677.9 677.331 677.665C677.096 677.429 677.204 676.037 677.571 674.571C677.939 673.106 678.433 672.1 678.669 672.335C678.904 672.571 678.796 673.963 678.429 675.429ZM676.429 682.429C676.061 683.894 675.567 684.9 675.331 684.665C675.096 684.429 675.204 683.037 675.571 681.571C675.939 680.106 676.433 679.1 676.669 679.335C676.904 679.571 676.796 680.963 676.429 682.429ZM673.4 692.4C672.433 695.467 671.462 697.796 671.242 697.576C671.022 697.356 671.633 694.667 672.6 691.6C673.567 688.533 674.538 686.204 674.758 686.424C674.978 686.644 674.367 689.333 673.4 692.4ZM668 709.5C666.236 714.794 664.626 718.959 664.422 718.755C664.218 718.551 665.482 714.04 667.231 708.731C668.98 703.421 670.59 699.256 670.809 699.475C671.028 699.694 669.764 704.206 668 709.5ZM658.965 734.593C639.052 787.731 609.863 841.677 577.315 885.5C546.75 926.651 500.837 972.099 468.629 993.083C461.832 997.511 463.309 996.298 479.327 984.298C529.426 946.764 578.648 889.504 614.444 827.117C630.276 799.524 648.756 760.012 659.048 731.747C661.402 725.283 663.509 720.176 663.731 720.398C663.953 720.619 661.808 727.007 658.965 734.593ZM457.066 1000.91C454.044 1003.24 448.138 1006.65 449.5 1005.28C450.842 1003.94 458.33 998.994 458.982 999.022C459.267 999.034 458.405 999.886 457.066 1000.91ZM447.45 1006.89C446.101 1008.15 434.341 1014.53 435.259 1013.5C436.043 1012.62 447.149 1006.08 447.95 1006.03C448.197 1006.01 447.972 1006.4 447.45 1006.89ZM420 1021.5C418.625 1022.29 417.05 1022.93 416.5 1022.93C415.95 1022.93 416.625 1022.29 418 1021.5C419.375 1020.71 420.95 1020.07 421.5 1020.07C422.05 1020.07 421.375 1020.71 420 1021.5Z" fill="#3D5CFF"/>
<path fill-rule="evenodd" clip-rule="evenodd" d="M924.928 5.104C894.069 26.308 859.463 63.983 830.741 107.643C811.406 137.034 787.703 182.087 773.471 216.5C737.382 303.759 715.34 400.285 705.994 512C698.925 596.482 685.596 661.392 661.94 726.524C631.841 809.397 587.337 881.854 531.521 938.863C496.937 974.185 463.761 999.505 429.692 1016.58L414.883 1024H927.442H1440V512V0H1186.18H932.356L924.928 5.104Z" fill="white"/>
</svg>
